<?xml version="1.0" encoding="UTF-8"?>
<svg id="Logo" xmlns="http://www.w3.org/2000/svg" version="1.1" viewBox="0 0 532.9 532.9">
  <!-- Generator: Adobe Illustrator 29.5.1, SVG Export Plug-In . SVG Version: 2.1.0 Build 141)  -->
  <defs>
    <style>
      .st0 {
        display: none;
        fill: none;
        stroke: #181715;
        stroke-miterlimit: 10;
        stroke-width: 52px;
      }

      .st1 {
        fill: #fff;
      }
    </style>
  </defs>
  <polyline class="st0" points="389.4 16.9 424.3 181.5 259.7 216.4"/>
  <path class="st0" d="M455.1,295.6c0,101.7-82.5,184.2-184.2,184.2s-184.2-82.5-184.2-184.2,82.5-184.2,184.2-184.2"/>
  <path class="st0" d="M270.9,111.4c48.4,0,92.5,18.7,125.3,49.2"/>
  <path class="st1" d="M331.7,291.6c0,77.8-63.3,141.1-141.1,141.1s-141.1-63.3-141.1-141.1,63.3-141.1,141.1-141.1,59.1,9.5,83,27l-97.9,20.8,9.6,45.4,169.5-35.9-35.9-169.5-45.3,9.5,18.2,86c-30-19.4-64.9-29.7-101.2-29.7C87.2,104.1,3.1,188.2,3.1,291.6s84.1,187.5,187.5,187.5,187.5-84.1,187.5-187.5h-46.4Z"/>
</svg>